<mxfile host="app.diagrams.net" modified="2024-04-29T09:01:40.355Z" agent="Mozilla/5.0 (X11; Ubuntu; Linux x86_64; rv:125.0) Gecko/20100101 Firefox/125.0" version="24.3.1" etag="APKlt9LiLKZ80UKn49qI" type="github">
  <diagram name="Page-1" id="bmyD5YNur-AGMVWaP6So">
    <mxGraphModel>
      <root>
        <mxCell id="0" />
        <mxCell id="1" parent="0" />
      </root>
    </mxGraphModel>
  </diagram>
</mxfile>
